<?xml version="1.0" encoding="UTF-8" standalone="no"?>
<svg
   xmlns:dc="http://purl.org/dc/elements/1.1/"
   xmlns:cc="http://creativecommons.org/ns#"
   xmlns:rdf="http://www.w3.org/1999/02/22-rdf-syntax-ns#"
   xmlns:svg="http://www.w3.org/2000/svg"
   xmlns="http://www.w3.org/2000/svg"
   xmlns:sodipodi="http://sodipodi.sourceforge.net/DTD/sodipodi-0.dtd"
   xmlns:inkscape="http://www.inkscape.org/namespaces/inkscape"
   version="1.0"
   viewBox="0 0 425 200"
   opacity=".33"
   id="svg8"
   sodipodi:docname="bg-nanotrasen.svg"
   inkscape:version="1.0.2 (e86c870879, 2021-01-15)">
  <metadata
     id="metadata14">
    <rdf:RDF>
      <cc:Work
         rdf:about="">
        <dc:format>image/svg+xml</dc:format>
        <dc:type
           rdf:resource="http://purl.org/dc/dcmitype/StillImage" />
        <dc:title></dc:title>
      </cc:Work>
    </rdf:RDF>
  </metadata>
  <defs
     id="defs12" />
  <sodipodi:namedview
     pagecolor="#ffffff"
     bordercolor="#666666"
     borderopacity="1"
     objecttolerance="10"
     gridtolerance="10"
     guidetolerance="10"
     inkscape:pageopacity="0"
     inkscape:pageshadow="2"
     inkscape:window-width="1920"
     inkscape:window-height="1061"
     id="namedview10"
     showgrid="false"
     inkscape:pagecheckerboard="true"
     showguides="true"
     inkscape:guide-bbox="true"
     inkscape:zoom="2.3542496"
     inkscape:cx="186.40767"
     inkscape:cy="106.07978"
     inkscape:window-x="0"
     inkscape:window-y="0"
     inkscape:window-maximized="1"
     inkscape:current-layer="svg8" />
  <path
     d="m 355.52758,159.1365 a 9.2737875,8.6444302 0 0 1 -5.96927,15.26002 h -45.71768 a 3.709515,3.4577722 0 0 1 -3.70952,-3.45778 v -55.23275 z"
     id="path6"
     style="stroke-width:0.999999" />
  <rect
     style="fill:#a8825b;fill-opacity:1;stroke-width:0.755906;stroke-linecap:round;stroke-linejoin:round"
     id="rect24"
     width="424.99509"
     height="10.806208"
     x="0.010817811"
     y="95.080673"
     ry="8.5617203e-06" />
  <rect
     style="opacity:1;fill:#b79c6b;fill-opacity:1;stroke-width:0.755905;stroke-linecap:round;stroke-linejoin:round"
     id="rect24-6"
     width="424.99509"
     height="10.806208"
     x="0.01081783"
     y="84.274467"
     ry="8.5617203e-06" />
  <rect
     style="fill:#92754e;fill-opacity:1;stroke-width:0.755906;stroke-linecap:round;stroke-linejoin:round"
     id="rect24-7"
     width="424.99509"
     height="10.806208"
     x="0.010817791"
     y="105.88688"
     ry="8.5617203e-06" />
  <path
     d="m 188.09142,36.15995 h -49.23414 a 4.6751471,4.1663814 0 0 0 -4.67514,4.166382 V 170.23052 a 4.6751471,4.1663814 0 0 0 4.67514,4.16638 h 36.72111 a 4.6751471,4.1663814 0 0 0 4.67515,-4.16638 v -70.21285 l 49.93413,72.39465 a 4.6751471,4.1663814 0 0 0 3.98287,1.98458 h 50.8597 a 4.6751471,4.1663814 0 0 0 4.67515,-4.16638 V 40.326332 a 4.6751471,4.1663814 0 0 0 -4.67515,-4.166382 h -37.83382 a 4.6751471,4.1663814 0 0 0 -4.67514,4.166382 v 70.956408 l -50.447,-73.138204 a 4.6751471,4.1663814 0 0 0 -3.98286,-1.984586 z"
     id="path2"
     style="stroke-width:0.999999" />
  <path
     d="m 188.09142,36.15995 h -49.23414 a 4.6751471,4.1663814 0 0 0 -4.67514,4.166382 V 170.23052 a 4.6751471,4.1663814 0 0 0 4.67514,4.16638 h 36.72111 a 4.6751471,4.1663814 0 0 0 4.67515,-4.16638 v -70.21285 l 49.93413,72.39465 a 4.6751471,4.1663814 0 0 0 3.98287,1.98458 h 50.8597 a 4.6751471,4.1663814 0 0 0 4.67515,-4.16638 V 40.326332 a 4.6751471,4.1663814 0 0 0 -4.67515,-4.166382 h -37.83382 a 4.6751471,4.1663814 0 0 0 -4.67514,4.166382 v 70.956408 l -50.447,-73.138204 a 4.6751471,4.1663814 0 0 0 -3.98286,-1.984586 z"
     id="path2-5"
     style="stroke-width:6.9;stroke:#868585;stroke-opacity:1;stroke-miterlimit:4;stroke-dasharray:none;fill:none" />
  <path
     d="M 68.359954,51.420349 A 9.2737882,8.6444302 0 0 1 74.329233,36.16033 H 120.0469 a 3.7095154,3.4577722 0 0 1 3.70952,3.457768 v 55.23275 z"
     id="path4"
     style="stroke-width:0.999999" />
  <path
     d="M 68.359954,51.420349 A 9.2737882,8.6444302 0 0 1 74.329234,36.16033 H 120.0469 a 3.7095154,3.4577722 0 0 1 3.70952,3.457768 v 55.23275 z"
     id="path4-3"
     style="stroke-width:6.9;fill:none;stroke:#868585;stroke-opacity:1;stroke-miterlimit:4;stroke-dasharray:none" />
  <path
     d="m 355.52758,159.1365 a 9.2737875,8.6444302 0 0 1 -5.96927,15.26002 h -45.71768 a 3.709515,3.4577722 0 0 1 -3.70952,-3.45778 v -55.23275 z"
     id="path6-5"
     style="stroke-width:6.9;stroke:#868585;stroke-opacity:1;stroke-miterlimit:4;stroke-dasharray:none;fill:none" />
</svg>
